<svg xmlns="http://www.w3.org/2000/svg" xmlns:xlink="http://www.w3.org/1999/xlink" fill="none" version="1.1" width="30" height="24" viewBox="0 0 30 24"><defs><clipPath id="master_svg0_2_156"><rect x="0" y="0" width="30" height="24" rx="0"/></clipPath></defs><g clip-path="url(#master_svg0_2_156)"><g transform="matrix(1,0,0,-1,0,49.03125)"><g><path d="M6.75,48.515625Q8.85938,48.468725,9.98438,46.640625Q11.0156,44.765625,9.98438,42.890625Q8.85938,41.062525,6.75,41.015625Q4.64062,41.062525,3.51562,42.890625Q2.48438,44.765625,3.51562,46.640625Q4.64062,48.468725,6.75,48.515625ZM24,48.515625Q26.1094,48.468725,27.2344,46.640625Q28.2656,44.765625,27.2344,42.890625Q26.1094,41.062525,24,41.015625Q21.8906,41.062525,20.7656,42.890625Q19.7344,44.765625,20.7656,46.640625Q21.8906,48.468725,24,48.515625ZM0,34.500005Q0.046875,36.656225,1.45312,38.062525Q2.85938,39.468725,5.01562,39.515625L6.98438,39.515625Q8.10938,39.515625,9.09375,39.046825Q9,38.531225,9,38.015625Q9.09375,35.250025,11.0156,33.515625L0.984375,33.515625Q0.09375,33.609375,0,34.500005ZM18.9844,33.515625Q20.9062,35.250025,21,38.015625Q21,38.531225,20.9062,39.046825Q21.8906,39.515625,23.0156,39.515625L24.9844,39.515625Q27.1406,39.468725,28.5469,38.062525Q29.9531,36.656225,30,34.500005Q29.9062,33.609375,29.0156,33.515625L18.9844,33.515625ZM10.5,38.015625Q10.5,39.234425,11.1094,40.265625Q11.7188,41.296825,12.75,41.906225Q13.8281,42.515625,15,42.515625Q16.1719,42.515625,17.25,41.906225Q18.2812,41.296825,18.8906,40.265625Q19.5,39.234425,19.5,38.015625Q19.5,36.796825,18.8906,35.765625Q18.2812,34.734425,17.25,34.125005Q16.1719,33.515625,15,33.515625Q13.8281,33.515625,12.75,34.125005Q11.7188,34.734425,11.1094,35.765625Q10.5,36.796825,10.5,38.015625ZM6,25.781245Q6.04688,28.406245,7.82812,30.187505Q9.60938,31.968745,12.2344,32.015625L17.7656,32.015625Q20.3906,31.968745,22.1719,30.187505Q23.9531,28.406245,24,25.781245Q23.9062,24.609375,22.7344,24.515625L7.26562,24.515625Q6.09375,24.609375,6,25.781245Z" fill="#000000" fill-opacity="1" style="mix-blend-mode:passthrough"/></g></g></g></svg>