<svg xmlns="http://www.w3.org/2000/svg" xmlns:xlink="http://www.w3.org/1999/xlink" fill="none" version="1.1" width="21" height="24" viewBox="0 0 21 24"><defs><clipPath id="master_svg0_2_166"><rect x="0" y="0" width="21" height="24" rx="0"/></clipPath></defs><g clip-path="url(#master_svg0_2_166)"><g transform="matrix(1,0,0,-1,0,49.03125)"><g><path d="M21,44.765625L21,42.515625L21,44.765625L21,42.515625Q20.9062,40.921825,17.9062,39.843725Q14.9531,38.812525,10.5,38.765625Q6.04688,38.812525,3.09375,39.843725Q0.09375,40.921825,0,42.515625L0,44.765625Q0.09375,46.359425,3.09375,47.437525Q6.04688,48.468725,10.5,48.515625Q14.9531,48.468725,17.9062,47.437525Q20.9062,46.359425,21,44.765625ZM18.4219,38.437525Q19.9219,38.953125,21,39.796825L21,35.015625Q20.9062,33.421875,17.9062,32.343745Q14.9531,31.312505,10.5,31.265625Q6.04688,31.312505,3.09375,32.343745Q0.09375,33.421875,0,35.015625L0,39.796825Q1.07812,38.953125,2.57812,38.437525Q5.85938,37.312525,10.5,37.265625Q15.1406,37.312525,18.4219,38.437525ZM0,32.296875Q1.07812,31.453125,2.57812,30.937505Q5.85938,29.812505,10.5,29.765625Q15.1406,29.812505,18.4219,30.937505Q19.9219,31.453125,21,32.296875L21,28.265625Q20.9062,26.671875,17.9062,25.593745Q14.9531,24.5625,10.5,24.515625Q6.04688,24.5625,3.09375,25.593745Q0.09375,26.671875,0,28.265625L0,32.296875Z" fill="#000000" fill-opacity="1" style="mix-blend-mode:passthrough"/></g></g></g></svg>