<svg xmlns="http://www.w3.org/2000/svg" xmlns:xlink="http://www.w3.org/1999/xlink" fill="none" version="1.1" width="26.34375" height="24" viewBox="0 0 26.34375 24"><defs><clipPath id="master_svg0_2_161"><rect x="0" y="0" width="26.34375" height="24" rx="0"/></clipPath></defs><g clip-path="url(#master_svg0_2_161)"><g transform="matrix(1,0,0,-1,0,49.03125)"><g><path d="M25.35935625,43.640625L22.64065625,47.906225L25.35935625,43.640625L22.64065625,47.906225Q22.26565625,48.515625,21.51565625,48.515625L4.82812625,48.515625Q4.07812625,48.515625,3.70312625,47.906225L0.98437525,43.640625Q2.4999999997943334e-7,41.906225,0.70312525,40.171825Q1.45312625,38.437525,3.42187625,38.062525Q3.70312625,38.015625,3.98437625,38.015625Q5.90624625,38.062525,7.07812625,39.375025Q8.20312625,38.062525,10.12499625,38.015625Q11.99995625,38.062525,13.17185625,39.375025Q14.34375625,38.062525,16.21875625,38.015625Q18.09375625,38.062525,19.26565625,39.375025Q20.43745625,38.062525,22.35935625,38.015625Q22.64065625,38.015625,22.92185625,38.062525Q24.89065625,38.437525,25.64065625,40.171825Q26.34375625,41.906225,25.35935625,43.640625ZM23.10935625,36.562525Q22.73435625,36.515625,22.31245625,36.515625Q21.46875625,36.515625,20.67185625,36.750025L20.67185625,30.515625L5.67187625,30.515625L5.67187625,36.750025Q4.87499625,36.515625,3.98437625,36.515625Q3.60937625,36.515625,3.23437625,36.562525Q2.95312625,36.609425,2.67187625,36.656225L2.67187625,30.515625L2.67187625,27.515625Q2.71874625,26.250005,3.56249625,25.40625Q4.406246250000001,24.5625,5.67187625,24.515625L20.67185625,24.515625Q21.93745625,24.5625,22.78125625,25.40625Q23.62495625,26.250005,23.67185625,27.515625L23.67185625,30.515625L23.67185625,36.656225Q23.39065625,36.609425,23.10935625,36.562525Z" fill="#000000" fill-opacity="1" style="mix-blend-mode:passthrough"/></g></g></g></svg>