<svg xmlns="http://www.w3.org/2000/svg" xmlns:xlink="http://www.w3.org/1999/xlink" fill="none" version="1.1" width="24" height="24" viewBox="0 0 24 24"><defs><clipPath id="master_svg0_2_151"><rect x="0" y="0" width="24" height="24" rx="0"/></clipPath></defs><g clip-path="url(#master_svg0_2_151)"><g transform="matrix(1,0,0,-1,0,46.03125)"><g><path d="M3,42.515625Q3,43.171825,2.57812,43.593725Q2.15625,44.015625,1.5,44.015625Q0.84375,44.015625,0.421875,43.593725Q0,43.171825,0,42.515625L0,26.765625Q0.046875,25.171875,1.07812,24.093745Q2.15625,23.0625,3.75,23.015625L22.5,23.015625Q23.1562,23.015625,23.5781,23.4375Q24,23.859375,24,24.515625Q24,25.171875,23.5781,25.593745Q23.1562,26.015625,22.5,26.015625L3.75,26.015625Q3.04688,26.062505,3,26.765625L3,42.515625ZM22.0781,38.437525Q22.5,38.906225,22.5,39.515625Q22.5,40.125025,22.0781,40.593725Q21.6094,41.015625,21,41.015625Q20.3906,41.015625,19.9219,40.593725L15,35.625025L12.3281,38.343725Q11.8594,38.765625,11.25,38.765625Q10.6406,38.765625,10.1719,38.343725L4.92188,33.093725Q4.5,32.625005,4.5,32.015625Q4.5,31.406245,4.92188,30.937505Q5.39062,30.515625,6,30.515625Q6.60938,30.515625,7.07812,30.937505L11.25,35.156225L13.9219,32.437505Q14.3906,32.015625,15,32.015625Q15.6094,32.015625,16.0781,32.437505L22.0781,38.437525Z" fill="#000000" fill-opacity="1" style="mix-blend-mode:passthrough"/></g></g></g></svg>